<mxfile host="app.diagrams.net" agent="Mozilla/5.0 (Windows NT 10.0; Win64; x64) AppleWebKit/537.36 (KHTML, like Gecko) Chrome/141.0.0.0 Safari/537.36" version="26.2.9">
  <diagram id="C5RBs43oDa-KdzZeNtuy" name="Page-1">
    <mxGraphModel dx="1154" dy="692" grid="1" gridSize="10" guides="1" tooltips="1" connect="1" arrows="1" fold="1" page="1" pageScale="1" pageWidth="827" pageHeight="1169" math="0" shadow="0">
      <root>
        <mxCell id="WIyWlLk6GJQsqaUBKTNV-0" />
        <mxCell id="WIyWlLk6GJQsqaUBKTNV-1" parent="WIyWlLk6GJQsqaUBKTNV-0" />
        <mxCell id="WIyWlLk6GJQsqaUBKTNV-7" value="Info-service" style="rounded=1;whiteSpace=wrap;html=1;fontSize=12;glass=0;strokeWidth=1;shadow=0;" parent="WIyWlLk6GJQsqaUBKTNV-1" vertex="1">
          <mxGeometry x="229" y="390" width="111" height="40" as="geometry" />
        </mxCell>
        <mxCell id="NI3PfxemRm1xDube5HUD-0" value="" style="ellipse;whiteSpace=wrap;html=1;" vertex="1" parent="WIyWlLk6GJQsqaUBKTNV-1">
          <mxGeometry x="29" y="170" width="100" height="60" as="geometry" />
        </mxCell>
        <mxCell id="NI3PfxemRm1xDube5HUD-1" value="Info 1" style="text;html=1;align=center;verticalAlign=middle;whiteSpace=wrap;rounded=0;" vertex="1" parent="WIyWlLk6GJQsqaUBKTNV-1">
          <mxGeometry x="49" y="185" width="60" height="30" as="geometry" />
        </mxCell>
        <mxCell id="NI3PfxemRm1xDube5HUD-2" value="" style="ellipse;whiteSpace=wrap;html=1;" vertex="1" parent="WIyWlLk6GJQsqaUBKTNV-1">
          <mxGeometry x="149" y="170" width="100" height="60" as="geometry" />
        </mxCell>
        <mxCell id="NI3PfxemRm1xDube5HUD-3" value="Info 2" style="text;html=1;align=center;verticalAlign=middle;whiteSpace=wrap;rounded=0;" vertex="1" parent="WIyWlLk6GJQsqaUBKTNV-1">
          <mxGeometry x="169" y="185" width="60" height="30" as="geometry" />
        </mxCell>
        <mxCell id="NI3PfxemRm1xDube5HUD-4" value="" style="ellipse;whiteSpace=wrap;html=1;" vertex="1" parent="WIyWlLk6GJQsqaUBKTNV-1">
          <mxGeometry x="269" y="170" width="100" height="60" as="geometry" />
        </mxCell>
        <mxCell id="NI3PfxemRm1xDube5HUD-5" value="Info 3" style="text;html=1;align=center;verticalAlign=middle;whiteSpace=wrap;rounded=0;" vertex="1" parent="WIyWlLk6GJQsqaUBKTNV-1">
          <mxGeometry x="289" y="185" width="60" height="30" as="geometry" />
        </mxCell>
        <mxCell id="NI3PfxemRm1xDube5HUD-6" value="" style="ellipse;whiteSpace=wrap;html=1;" vertex="1" parent="WIyWlLk6GJQsqaUBKTNV-1">
          <mxGeometry x="389" y="170" width="100" height="60" as="geometry" />
        </mxCell>
        <mxCell id="NI3PfxemRm1xDube5HUD-7" value="Info 4" style="text;html=1;align=center;verticalAlign=middle;whiteSpace=wrap;rounded=0;" vertex="1" parent="WIyWlLk6GJQsqaUBKTNV-1">
          <mxGeometry x="409" y="185" width="60" height="30" as="geometry" />
        </mxCell>
        <mxCell id="NI3PfxemRm1xDube5HUD-14" value="" style="endArrow=classic;startArrow=classic;html=1;rounded=0;exitX=0.377;exitY=0.002;exitDx=0;exitDy=0;exitPerimeter=0;" edge="1" parent="WIyWlLk6GJQsqaUBKTNV-1" source="WIyWlLk6GJQsqaUBKTNV-7">
          <mxGeometry width="50" height="50" relative="1" as="geometry">
            <mxPoint x="390" y="280" as="sourcePoint" />
            <mxPoint x="440" y="230" as="targetPoint" />
          </mxGeometry>
        </mxCell>
        <mxCell id="NI3PfxemRm1xDube5HUD-15" value="" style="endArrow=classic;startArrow=classic;html=1;rounded=0;exitX=0.32;exitY=-0.014;exitDx=0;exitDy=0;exitPerimeter=0;" edge="1" parent="WIyWlLk6GJQsqaUBKTNV-1" source="WIyWlLk6GJQsqaUBKTNV-7">
          <mxGeometry width="50" height="50" relative="1" as="geometry">
            <mxPoint x="160" y="390" as="sourcePoint" />
            <mxPoint x="318.5" y="230" as="targetPoint" />
          </mxGeometry>
        </mxCell>
        <mxCell id="NI3PfxemRm1xDube5HUD-16" value="" style="endArrow=classic;startArrow=classic;html=1;rounded=0;entryX=0.5;entryY=1;entryDx=0;entryDy=0;exitX=0.152;exitY=-0.031;exitDx=0;exitDy=0;exitPerimeter=0;" edge="1" parent="WIyWlLk6GJQsqaUBKTNV-1" source="WIyWlLk6GJQsqaUBKTNV-7" target="NI3PfxemRm1xDube5HUD-2">
          <mxGeometry width="50" height="50" relative="1" as="geometry">
            <mxPoint x="390" y="280" as="sourcePoint" />
            <mxPoint x="120" y="340" as="targetPoint" />
            <Array as="points" />
          </mxGeometry>
        </mxCell>
        <mxCell id="NI3PfxemRm1xDube5HUD-17" value="" style="endArrow=classic;startArrow=classic;html=1;rounded=0;entryX=0.5;entryY=1;entryDx=0;entryDy=0;exitX=0.069;exitY=-0.014;exitDx=0;exitDy=0;exitPerimeter=0;" edge="1" parent="WIyWlLk6GJQsqaUBKTNV-1" source="WIyWlLk6GJQsqaUBKTNV-7" target="NI3PfxemRm1xDube5HUD-0">
          <mxGeometry width="50" height="50" relative="1" as="geometry">
            <mxPoint x="390" y="280" as="sourcePoint" />
            <mxPoint x="90" y="290" as="targetPoint" />
          </mxGeometry>
        </mxCell>
        <mxCell id="NI3PfxemRm1xDube5HUD-19" value="" style="endArrow=classic;html=1;rounded=0;exitX=1;exitY=0.5;exitDx=0;exitDy=0;" edge="1" parent="WIyWlLk6GJQsqaUBKTNV-1" source="WIyWlLk6GJQsqaUBKTNV-7" target="NI3PfxemRm1xDube5HUD-20">
          <mxGeometry width="50" height="50" relative="1" as="geometry">
            <mxPoint x="390" y="280" as="sourcePoint" />
            <mxPoint x="400" y="410" as="targetPoint" />
          </mxGeometry>
        </mxCell>
        <mxCell id="NI3PfxemRm1xDube5HUD-20" value="" style="rounded=1;whiteSpace=wrap;html=1;" vertex="1" parent="WIyWlLk6GJQsqaUBKTNV-1">
          <mxGeometry x="394" y="390" width="90" height="40" as="geometry" />
        </mxCell>
        <mxCell id="NI3PfxemRm1xDube5HUD-21" value="Text" style="text;html=1;align=center;verticalAlign=middle;whiteSpace=wrap;rounded=0;" vertex="1" parent="WIyWlLk6GJQsqaUBKTNV-1">
          <mxGeometry x="409" y="395" width="60" height="30" as="geometry" />
        </mxCell>
      </root>
    </mxGraphModel>
  </diagram>
</mxfile>
